<svg width="0" height="0" class="hidden">
  <symbol fill="none" xmlns="http://www.w3.org/2000/svg" viewBox="0 0 34 34" id="instagram-icon">
    <rect width="34" height="34" rx="17" fill="#C91ECC"></rect>
    <path d="M13.4593 17C13.4593 15.0441 15.0444 13.4581 17.0004 13.4581C18.9563 13.4581 20.5423 15.0441 20.5423 17C20.5423 18.9559 18.9563 20.542 17.0004 20.542C15.0444 20.542 13.4593 18.9559 13.4593 17ZM11.5446 17C11.5446 20.0133 13.9871 22.4558 17.0004 22.4558C20.0136 22.4558 22.4562 20.0133 22.4562 17C22.4562 13.9868 20.0136 11.5442 17.0004 11.5442C13.9871 11.5442 11.5446 13.9868 11.5446 17ZM21.3972 11.3279C21.3971 11.58 21.4717 11.8266 21.6118 12.0363C21.7518 12.246 21.9508 12.4095 22.1838 12.5061C22.4167 12.6027 22.6731 12.6281 22.9204 12.579C23.1677 12.5299 23.395 12.4085 23.5734 12.2303C23.7517 12.0521 23.8733 11.8249 23.9226 11.5776C23.9719 11.3303 23.9467 11.0739 23.8503 10.8409C23.7539 10.6079 23.5906 10.4087 23.3809 10.2685C23.1713 10.1284 22.9248 10.0535 22.6727 10.0534H22.6722C22.3341 10.0535 22.01 10.1878 21.771 10.4268C21.5319 10.6658 21.3975 10.9899 21.3972 11.3279ZM12.7079 25.6485C11.672 25.6013 11.1089 25.4288 10.7348 25.283C10.2387 25.0899 9.88476 24.8599 9.51263 24.4882C9.1405 24.1166 8.91015 23.763 8.71788 23.267C8.57202 22.893 8.39947 22.3298 8.35238 21.2939C8.30087 20.1739 8.29059 19.8375 8.29059 17.0001C8.29059 14.1627 8.30172 13.8272 8.35238 12.7063C8.39956 11.6704 8.57338 11.1083 8.71788 10.7332C8.911 10.2371 9.14101 9.88321 9.51263 9.51108C9.88425 9.13895 10.2379 8.9086 10.7348 8.71633C11.1088 8.57047 11.672 8.39792 12.7079 8.35083C13.8278 8.29932 14.1643 8.28903 17.0004 8.28903C19.8365 8.28903 20.1732 8.30017 21.2941 8.35083C22.33 8.398 22.8921 8.57183 23.2672 8.71633C23.7633 8.9086 24.1172 9.13946 24.4894 9.51108C24.8615 9.8827 25.091 10.2371 25.2841 10.7332C25.43 11.1072 25.6025 11.6704 25.6496 12.7063C25.7011 13.8272 25.7114 14.1627 25.7114 17.0001C25.7114 19.8375 25.7011 20.173 25.6496 21.2939C25.6025 22.3298 25.4291 22.8928 25.2841 23.267C25.091 23.763 24.861 24.117 24.4894 24.4882C24.1178 24.8595 23.7633 25.0899 23.2672 25.283C22.8932 25.4289 22.33 25.6014 21.2941 25.6485C20.1742 25.7 19.8378 25.7103 17.0004 25.7103C14.163 25.7103 13.8275 25.7 12.7079 25.6485ZM12.6199 6.43935C11.4888 6.49086 10.7159 6.6702 10.0409 6.93286C9.34187 7.20409 8.7501 7.56798 8.15875 8.15839C7.56741 8.7488 7.20446 9.3415 6.93322 10.0405C6.67057 10.716 6.49122 11.4884 6.43971 12.6195C6.38735 13.7524 6.37537 14.1146 6.37537 17C6.37537 19.8854 6.38735 20.2476 6.43971 21.3805C6.49122 22.5117 6.67057 23.2841 6.93322 23.9595C7.20446 24.6581 7.56749 25.2515 8.15875 25.8416C8.75001 26.4318 9.34187 26.7951 10.0409 27.0671C10.7172 27.3298 11.4888 27.5091 12.6199 27.5607C13.7534 27.6122 14.115 27.625 17.0004 27.625C19.8858 27.625 20.248 27.613 21.3808 27.5607C22.512 27.5091 23.2844 27.3298 23.9598 27.0671C24.6584 26.7951 25.2506 26.432 25.842 25.8416C26.4333 25.2512 26.7955 24.6581 27.0675 23.9595C27.3302 23.2841 27.5104 22.5116 27.561 21.3805C27.6125 20.2467 27.6245 19.8854 27.6245 17C27.6245 14.1146 27.6125 13.7524 27.561 12.6195C27.5095 11.4883 27.3302 10.7155 27.0675 10.0405C26.7955 9.34193 26.4324 8.74973 25.842 8.15839C25.2516 7.56704 24.6584 7.20409 23.9607 6.93286C23.2844 6.6702 22.5119 6.49001 21.3817 6.43935C20.2488 6.38784 19.8866 6.375 17.0012 6.375C14.1158 6.375 13.7534 6.38699 12.6199 6.43935Z" fill="white"></path>
  </symbol>
  <symbol fill="none" xmlns="http://www.w3.org/2000/svg" viewBox="0 0 131 25" id="logo">
    <g clip-path="url(#clip0_1_1375)">
      <g clip-path="url(#clip1_1_1375)">
        <g clip-path="url(#clip2_1_1375)">
          <g clip-path="url(#clip3_1_1375)">
            <g clip-path="url(#clip4_1_1375)">
              <g clip-path="url(#clip5_1_1375)">
                <g clip-path="url(#clip6_1_1375)">
                  <path d="M39.4065 3.8884L40.3772 21.1365H36.7932L36.5941 13.7445C36.5775 13.3794 36.5692 12.8816 36.5692 12.2511C36.5692 11.4215 36.5941 10.6118 36.6439 9.82194C36.6936 9.03545 36.7517 8.21079 36.8181 7.34798L34.8767 18.1996H31.7905L29.6749 7.34798C29.8575 9.25613 29.9487 10.9735 29.9487 12.5L29.9238 13.8191L29.7994 21.1365H26.29L27.2607 3.8884H31.467L33.3834 15.0387L35.2003 3.8884H39.4065ZM50.7559 17.4031H45.7035L44.8075 21.1365H40.5265L45.803 3.8884H50.7559L56.0324 21.1365H51.6519L50.7559 17.4031ZM46.3506 14.4662H50.0839L48.2173 6.82531L46.3506 14.4662ZM56.2066 3.8884H60.612L63.2004 9.41376L65.8586 3.8884H70.1694L65.5898 11.8031L70.5875 21.1365H66.1871L63.1507 14.5658L60.164 21.1365H55.8333L60.7115 11.9773L56.2066 3.8884ZM84.7991 16.084C84.7991 17.1625 84.517 18.1166 83.9529 18.9463C83.3887 19.7759 82.5807 20.418 81.5287 20.8727C80.4734 21.3306 79.224 21.5596 77.7804 21.5596C74.9265 21.5596 72.6533 20.73 70.9608 19.0707L73.0266 16.7809C74.3374 17.9424 75.8888 18.5231 77.6809 18.5231C78.5437 18.5231 79.2372 18.3356 79.7616 17.9606C80.2826 17.589 80.5431 17.0713 80.5431 16.4076C80.5431 15.7771 80.3241 15.2826 79.886 14.9242C79.4447 14.5691 78.6266 14.209 77.432 13.844C75.4077 13.2301 73.9724 12.5083 73.1262 11.6787C72.2799 10.849 71.8568 9.7788 71.8568 8.46798C71.8568 7.43924 72.1439 6.54323 72.718 5.77997C73.2888 5.01671 74.0686 4.43596 75.0576 4.03774C76.0432 3.63952 77.1416 3.4404 78.3529 3.4404C80.8915 3.4404 82.949 4.18707 84.5253 5.68041L82.6089 7.89553C82.0281 7.41435 81.4026 7.05263 80.7322 6.81037C80.0586 6.57144 79.365 6.45197 78.6515 6.45197C77.8551 6.45197 77.2295 6.59633 76.7749 6.88504C76.3169 7.17707 76.088 7.59687 76.088 8.14442C76.088 8.50946 76.1925 8.81643 76.4016 9.06532C76.6073 9.31421 76.9508 9.5465 77.432 9.76221C77.9132 9.97791 78.6349 10.2351 79.5973 10.5338C81.3561 11.0647 82.6636 11.7484 83.5198 12.5846C84.3727 13.4242 84.7991 14.5907 84.7991 16.084ZM95.0783 7.02442V21.1365H90.9965V7.02442H86.1431V3.8884H100.106L99.7076 7.02442H95.0783ZM110.485 17.4031H105.432L104.536 21.1365H100.255L105.532 3.8884H110.485L115.761 21.1365H111.381L110.485 17.4031ZM106.079 14.4662H109.813L107.946 6.82531L106.079 14.4662ZM129.425 9.13998C129.425 10.3015 129.113 11.2755 128.489 12.062C127.869 12.8518 127.036 13.4541 125.99 13.8689L130.495 21.1365H125.866L122.133 14.5409H120.988V21.1365H116.906V3.8884H122.332C124.704 3.8884 126.48 4.31981 127.658 5.18263C128.836 6.04545 129.425 7.36457 129.425 9.13998ZM125.219 9.13998C125.219 8.31035 124.982 7.70472 124.507 7.32309C124.036 6.94146 123.311 6.75064 122.332 6.75064H120.988V11.7284H122.506C123.402 11.7284 124.077 11.521 124.532 11.1062C124.99 10.6914 125.219 10.036 125.219 9.13998Z" fill="#2C2C35"></path>
                </g>
              </g>
            </g>
          </g>
          <g clip-path="url(#clip7_1_1375)">
            <g clip-path="url(#clip8_1_1375)">
              <path d="M7.64033 2.0588L0.392456 6.2431V9.48905L7.64033 5.30448L14.8879 9.48905V6.2431L7.64033 2.0588Z" fill="#E96315"></path>
              <path d="M14.7623 22.9685L7.5144 18.7842V15.5388L14.7623 19.7231L22.0099 15.5388V18.7842L14.7623 22.9685Z" fill="#E96315"></path>
              <path d="M0.392456 10.3607L7.64033 6.17615L10.4508 7.79899L3.20323 11.9836V20.3527L0.392456 18.7299V10.3607Z" fill="#E96315"></path>
              <path d="M18.4539 4.16394L11.206 -0.0203629L8.39526 1.60248L15.6429 5.78678V14.1559L18.4539 12.5331V4.16394Z" fill="#E96315"></path>
              <path d="M3.97339 20.8355L3.97366 12.4667L6.78444 10.8438V19.213L14.032 23.3973L11.2213 25.0204L3.97339 20.8355Z" fill="#E96315"></path>
              <path d="M22.0099 14.6669V6.29773L19.1991 4.67489V13.0438L11.9515 17.2286L14.7623 18.8517L22.0099 14.6669Z" fill="#E96315"></path>
            </g>
          </g>
        </g>
      </g>
    </g>
    <defs>
      <clipPath id="clip0_1_1375">
        <rect width="130.89" height="25" fill="white"></rect>
      </clipPath>
      <clipPath id="clip1_1_1375">
        <rect width="130.105" height="25.0407" fill="white" transform="translate(0.392456 -0.0203629)"></rect>
      </clipPath>
      <clipPath id="clip2_1_1375">
        <rect width="130.105" height="25.0407" fill="white" transform="translate(0.392456 -0.0203629)"></rect>
      </clipPath>
      <clipPath id="clip3_1_1375">
        <rect width="104.21" height="18.1192" fill="white" transform="translate(26.2875 3.4404)"></rect>
      </clipPath>
      <clipPath id="clip4_1_1375">
        <rect width="104.21" height="18.1192" fill="white" transform="translate(26.2875 3.4404)"></rect>
      </clipPath>
      <clipPath id="clip5_1_1375">
        <rect width="104.21" height="18.1192" fill="white" transform="translate(26.2875 3.4404)"></rect>
      </clipPath>
      <clipPath id="clip6_1_1375">
        <rect width="104.21" height="18.1192" fill="white" transform="translate(26.2875 3.4404)"></rect>
      </clipPath>
      <clipPath id="clip7_1_1375">
        <rect width="21.6175" height="25.0407" fill="white" transform="translate(0.392456 -0.0203629)"></rect>
      </clipPath>
      <clipPath id="clip8_1_1375">
        <rect width="21.6175" height="25.0407" fill="white" transform="translate(0.392456 -0.0203629)"></rect>
      </clipPath>
    </defs>
  </symbol>
  <symbol fill="none" xmlns="http://www.w3.org/2000/svg" viewBox="0 0 158 30" id="logo-footer">
    <g clip-path="url(#clip0_473_423)">
      <g clip-path="url(#clip1_473_423)">
        <g clip-path="url(#clip2_473_423)">
          <g clip-path="url(#clip3_473_423)">
            <g clip-path="url(#clip4_473_423)">
              <g clip-path="url(#clip5_473_423)">
                <g clip-path="url(#clip6_473_423)">
                  <path d="M47.2875 4.66602L48.4523 25.3637H44.1515L43.9126 16.4933C43.8927 16.0552 43.8827 15.4579 43.8827 14.7013C43.8827 13.7057 43.9126 12.734 43.9723 11.7863C44.0321 10.8425 44.1017 9.85289 44.1814 8.81751L41.8518 21.8394H38.1483L35.6096 8.81751C35.8286 11.1073 35.9381 13.1681 35.9381 14.9999L35.9083 16.5829L35.7589 25.3637H31.5477L32.7125 4.66602H37.76L40.0598 18.0464L42.24 4.66602H47.2875ZM60.9068 20.8837H54.8438L53.7686 25.3637H48.6315L54.9633 4.66602H60.9068L67.2386 25.3637H61.982L60.9068 20.8837ZM55.6204 17.3594H60.1004L57.8604 8.1903L55.6204 17.3594ZM67.4476 4.66602H72.7341L75.8402 11.2965L79.03 4.66602H84.2029L78.7074 14.1637L84.7047 25.3637H79.4242L75.7805 17.4789L72.1964 25.3637H66.9996L72.8535 14.3727L67.4476 4.66602ZM101.759 19.3008C101.759 20.595 101.42 21.7399 100.743 22.7354C100.066 23.731 99.0965 24.5016 97.8341 25.0471C96.5678 25.5967 95.0684 25.8715 93.3362 25.8715C89.9114 25.8715 87.1836 24.8759 85.1527 22.8848L87.6316 20.137C89.2046 21.5308 91.0663 22.2277 93.2167 22.2277C94.2521 22.2277 95.0844 22.0027 95.7136 21.5527C96.3388 21.1067 96.6514 20.4855 96.6514 19.689C96.6514 18.9324 96.3885 18.339 95.8629 17.909C95.3333 17.4829 94.3516 17.0508 92.918 16.6127C90.4889 15.876 88.7665 15.0099 87.7511 14.0143C86.7356 13.0188 86.2279 11.7345 86.2279 10.1615C86.2279 8.92702 86.5723 7.85181 87.2613 6.9359C87.9462 6.01998 88.882 5.32309 90.0687 4.84522C91.2515 4.36735 92.5696 4.12842 94.0231 4.12842C97.0695 4.12842 99.5385 5.02442 101.43 6.81643L99.1303 9.47458C98.4334 8.89715 97.6828 8.46309 96.8784 8.17238C96.07 7.88566 95.2377 7.7423 94.3815 7.7423C93.4258 7.7423 92.6751 7.91553 92.1295 8.26198C91.58 8.61242 91.3052 9.11617 91.3052 9.77324C91.3052 10.2113 91.4307 10.5796 91.6815 10.8783C91.9284 11.177 92.3406 11.4557 92.918 11.7146C93.4955 11.9734 94.3616 12.2821 95.5164 12.6405C97.627 13.2776 99.196 14.098 100.223 15.1015C101.247 16.109 101.759 17.5087 101.759 19.3008ZM114.094 8.42924V25.3637H109.195V8.42924H103.371V4.66602H120.127L119.649 8.42924H114.094ZM132.581 20.8837H126.518L125.443 25.3637H120.306L126.638 4.66602H132.581L138.913 25.3637H133.656L132.581 20.8837ZM127.295 17.3594H131.775L129.535 8.1903L127.295 17.3594ZM155.31 10.9679C155.31 12.3617 154.935 13.5305 154.187 14.4743C153.442 15.4221 152.443 16.1448 151.188 16.6426L156.594 25.3637H151.039L146.559 17.449H145.185V25.3637H140.287V4.66602H146.798C149.645 4.66602 151.776 5.18371 153.189 6.21909C154.603 7.25448 155.31 8.83742 155.31 10.9679ZM150.262 10.9679C150.262 9.97236 149.978 9.2456 149.408 8.78764C148.843 8.32968 147.972 8.1007 146.798 8.1007H145.185V14.0741H147.007C148.082 14.0741 148.892 13.8252 149.438 13.3274C149.988 12.8296 150.262 12.0431 150.262 10.9679Z" fill="white"></path>
                </g>
              </g>
            </g>
          </g>
          <g clip-path="url(#clip7_473_423)">
            <g clip-path="url(#clip8_473_423)">
              <path d="M9.16828 2.4707L0.470825 7.49186V11.387L9.16828 6.36552L17.8654 11.387V7.49186L9.16828 2.4707Z" fill="white"></path>
              <path d="M17.7147 27.5621L9.01721 22.541V18.6465L17.7147 23.6676L26.4118 18.6465V22.541L17.7147 27.5621Z" fill="white"></path>
              <path d="M0.470825 12.4329L9.16828 7.41138L12.5409 9.35878L3.84376 14.3803V24.4232L0.470825 22.4758V12.4329Z" fill="white"></path>
              <path d="M22.1446 4.99675L13.4472 -0.0244141L10.0742 1.92299L18.7714 6.94415V16.9871L22.1446 15.0397V4.99675Z" fill="white"></path>
              <path d="M4.76794 25.0027L4.76827 14.9601L8.1412 13.0127V23.0557L16.8383 28.0768L13.4654 30.0245L4.76794 25.0027Z" fill="white"></path>
              <path d="M26.4119 17.6002V7.55727L23.0389 5.60986V15.6525L14.3418 20.6743L17.7147 22.622L26.4119 17.6002Z" fill="white"></path>
            </g>
          </g>
        </g>
      </g>
    </g>
    <defs>
      <clipPath id="clip0_473_423">
        <rect width="157.068" height="30" fill="white"></rect>
      </clipPath>
      <clipPath id="clip1_473_423">
        <rect width="156.126" height="30.0489" fill="white" transform="translate(0.470825 -0.0244141)"></rect>
      </clipPath>
      <clipPath id="clip2_473_423">
        <rect width="156.126" height="30.0489" fill="white" transform="translate(0.470825 -0.0244141)"></rect>
      </clipPath>
      <clipPath id="clip3_473_423">
        <rect width="125.052" height="21.743" fill="white" transform="translate(31.5448 4.12842)"></rect>
      </clipPath>
      <clipPath id="clip4_473_423">
        <rect width="125.052" height="21.743" fill="white" transform="translate(31.5448 4.12842)"></rect>
      </clipPath>
      <clipPath id="clip5_473_423">
        <rect width="125.052" height="21.743" fill="white" transform="translate(31.5448 4.12842)"></rect>
      </clipPath>
      <clipPath id="clip6_473_423">
        <rect width="125.052" height="21.743" fill="white" transform="translate(31.5448 4.12842)"></rect>
      </clipPath>
      <clipPath id="clip7_473_423">
        <rect width="25.941" height="30.0489" fill="white" transform="translate(0.470825 -0.0244141)"></rect>
      </clipPath>
      <clipPath id="clip8_473_423">
        <rect width="25.941" height="30.0489" fill="white" transform="translate(0.470825 -0.0244141)"></rect>
      </clipPath>
    </defs>
  </symbol>
  <symbol fill="none" xmlns="http://www.w3.org/2000/svg" viewBox="0 0 89 28" id="meest-logo">
    <g clip-path="url(#clip0_1_1125)">
      <path d="M67.373 11.1705C65.2815 10.4484 64.6288 10.0211 64.6288 9.24C64.6288 8.37053 65.3557 7.85474 66.6462 7.85474C67.6993 7.85474 68.7525 8.14947 69.5387 8.45895L69.8798 4.68632C68.9157 4.42105 67.7438 4.21474 66.4682 4.21474C62.2407 4.21474 59.5262 6.60211 59.5262 9.75579C59.4965 11.76 60.8463 13.6611 64.3767 14.8547C66.3643 15.5179 66.8835 15.9305 66.8835 16.7853C66.8835 17.6547 66.216 18.2 64.614 18.2C63.0565 18.2 61.0392 17.5074 60.0453 16.9179L59.1108 20.6905C60.4013 21.3832 62.3742 21.8695 64.6288 21.8695C69.5238 21.8695 72.0158 19.5558 72.0158 16.3874C71.9862 13.8968 70.6363 12.2758 67.373 11.1705ZM80.2038 17.5811C78.6018 17.5811 78.1123 16.6526 78.1123 14.6042V0L72.9207 1.17895V4.58316H70.9478L70.5918 8.45895H72.9355V15.3705C72.9355 17.7579 73.425 19.3789 74.404 20.3958C75.2347 21.2653 76.6587 21.8547 78.3645 21.8547C79.8627 21.8547 81.1087 21.6779 81.8058 21.3979L81.7762 17.4189C81.3905 17.4926 80.8713 17.5663 80.2038 17.5811ZM78.5277 8.47368H81.7762V4.58316H78.5277V8.47368ZM19.6542 13.3516C19.5503 10.7579 19.4613 7.61895 19.4613 4.48H19.3575C18.6603 7.23579 17.711 10.3158 16.8358 12.8358L14.0768 21.2653H10.0867L7.66883 12.8947C6.92717 10.36 6.15583 7.28 5.62183 4.46526H5.5625C5.429 7.36842 5.32517 10.7137 5.162 13.4105L4.7615 21.6042H0L1.43883 0.0147368H8.26217L10.4723 7.22105C11.1695 9.71158 11.8815 12.4232 12.3858 14.9432H12.4897C13.1275 12.4526 13.8988 9.57895 14.6405 7.19158L17.0583 0.0147368H23.7482L24.9942 21.6042H19.9805L19.6542 13.3516ZM47.7337 14.7368C47.9117 16.9179 50.0625 17.9495 52.5545 17.9495C54.3642 17.9495 55.8178 17.7137 57.2715 17.2568L57.9687 20.8232C56.2332 21.5158 54.112 21.8547 51.798 21.8547C46.013 21.8547 42.7052 18.5389 42.7052 13.2337C42.7052 8.94526 45.39 4.2 51.3085 4.2C56.8265 4.2 58.9032 8.44421 58.9032 12.6442C58.9032 13.5432 58.7993 14.3389 58.7252 14.7221L47.7337 14.7368ZM53.9785 11.1263C53.9785 9.84421 53.4148 7.70737 50.9822 7.70737C48.7572 7.70737 47.8523 9.71158 47.7188 11.1263H53.9785Z" fill="#0862AF"></path>
      <path d="M85.41 0.0296073L88.9996 6.52855L85.41 13.057H81.7758L85.3655 6.52855L81.761 0.0296073H85.41C85.41 0.0148705 85.41 0.0148705 85.41 0.0296073ZM40.9841 28.0001H26.3882V24.4043H40.9841V28.0001ZM30.675 14.7222C30.853 16.9033 33.0038 17.9349 35.4958 17.9349C37.3055 17.9349 38.7592 17.6991 40.2128 17.2422L40.91 20.8086C39.1745 21.5012 37.0533 21.8401 34.7393 21.8401C28.9543 21.8401 25.6465 18.5243 25.6465 13.2191C25.6465 8.93066 28.3313 4.1854 34.2498 4.1854C39.7678 4.1854 41.8445 8.42961 41.8445 12.6296C41.8445 13.5286 41.7406 14.3243 41.6665 14.7075H30.675V14.7222ZM36.9198 11.1117C36.9198 9.82961 36.3561 7.69277 33.9235 7.69277C31.6985 7.69277 30.7937 9.69698 30.6453 11.1117H36.9198Z" fill="#ED1C24"></path>
    </g>
    <defs>
      <clipPath id="clip0_1_1125">
        <rect width="89" height="28" fill="white"></rect>
      </clipPath>
    </defs>
  </symbol>
  <symbol fill="none" xmlns="http://www.w3.org/2000/svg" viewBox="0 0 35 35" id="payment-icon">
    <path d="M6.98346 3.18386C7.17573 3.14773 7.37208 3.14023 7.56775 3.13818C11.1594 3.13955 14.7503 3.13818 18.3419 3.13887C18.8137 3.13409 19.2943 3.23295 19.702 3.47771C20.4499 3.90723 20.9599 4.72604 21.0042 5.58849C21.0131 5.87825 21.0424 6.17346 20.9892 6.4598C20.8808 6.76729 20.3927 6.70456 20.332 6.39844C20.2863 5.96415 20.3688 5.50872 20.2025 5.09148C19.9584 4.3722 19.2459 3.83496 18.4803 3.8411C14.796 3.84041 11.1116 3.84041 7.4273 3.8411C6.43395 3.82951 5.57968 4.74377 5.58855 5.72348C5.58514 13.5428 5.58855 21.3614 5.58718 29.1807C5.57491 29.9 5.99557 30.6145 6.65212 30.9213C6.95483 31.0774 7.30117 31.1088 7.63729 31.1047C11.2493 31.1006 14.8621 31.1081 18.4748 31.1006C19.2132 31.1067 19.8977 30.5981 20.1684 29.9225C20.2972 29.6246 20.3231 29.2959 20.317 28.9748C20.3136 27.1102 20.319 25.2455 20.3143 23.3808C20.317 23.237 20.3149 23.0665 20.4397 22.9684C20.6129 22.8381 20.932 22.8927 20.9913 23.1231C21.0267 23.299 21.0144 23.4797 21.0165 23.6576C21.007 25.5448 21.0281 27.432 21.0063 29.3184C20.9783 30.6145 19.8507 31.7851 18.5416 31.7967C14.8396 31.8056 11.1362 31.8008 7.43412 31.7988C6.07534 31.8199 4.88973 30.59 4.88973 29.2455C4.88223 21.5878 4.88972 13.93 4.88632 6.27232C4.88223 5.81075 4.87336 5.33623 5.03154 4.89512C5.30902 4.0279 6.08488 3.34204 6.98346 3.18386Z" fill="#E96315"></path>
    <path d="M8.62316 5.14667C8.91496 5.03554 9.2088 5.42552 9.00904 5.67096C8.70565 6.02344 8.35454 6.33297 8.03069 6.66704C7.8173 6.86612 7.63049 7.09451 7.40005 7.27518C7.20233 7.41835 6.89212 7.25882 6.88326 7.01747C6.85531 6.84907 6.98962 6.72635 7.09597 6.61863C7.51936 6.20138 7.93865 5.78004 8.3559 5.35734C8.43771 5.27894 8.51816 5.19371 8.62316 5.14667Z" fill="#E96315"></path>
    <path d="M11.0775 5.12891C11.2241 5.13913 11.4034 5.13913 11.4907 5.28094C11.5977 5.43366 11.552 5.64297 11.4136 5.75955C10.1196 7.05425 8.82425 8.34826 7.53023 9.64296C7.41638 9.76568 7.23502 9.86317 7.07276 9.7684C6.84777 9.66886 6.81641 9.33888 7.00935 9.19025C8.36677 7.83829 9.71601 6.47678 11.0775 5.12891Z" fill="#E96315"></path>
    <path d="M22.3854 7.86152C23.7456 7.71153 25.1514 7.96992 26.3602 8.61488C27.8976 9.42143 29.1057 10.8348 29.6546 12.4826C30.1523 13.9362 30.1373 15.5581 29.6171 17.0035C29.0546 18.5886 27.8853 19.9474 26.4045 20.7444C24.9094 21.5632 23.1013 21.7841 21.4507 21.3607C19.942 20.9857 18.575 20.0735 17.6444 18.8279C16.7021 17.5857 16.2126 16.0135 16.2726 14.4557C16.3135 12.9094 16.9128 11.3904 17.9198 10.2184C19.0379 8.90396 20.6687 8.04219 22.3854 7.86152ZM22.3936 8.5658C20.2978 8.81396 18.3895 10.2239 17.5414 12.1567C16.8862 13.6021 16.8221 15.3011 17.3635 16.7921C17.7848 17.9723 18.5764 19.0147 19.5963 19.7408C20.559 20.428 21.7241 20.831 22.9077 20.8664C24.2167 20.9264 25.5387 20.5446 26.62 19.8056C27.9331 18.9193 28.8814 17.5073 29.1916 15.9529C29.4466 14.7277 29.3205 13.4262 28.8357 12.2733C28.2706 10.9234 27.2083 9.78345 25.8898 9.14394C24.8146 8.61011 23.5826 8.41717 22.3936 8.5658Z" fill="#E96315"></path>
    <path d="M22.8307 10.7562C22.9446 10.5135 23.3434 10.5224 23.4613 10.7583C23.5077 10.9151 23.4845 11.0821 23.5036 11.243C23.7081 11.3542 23.9509 11.3814 24.1499 11.5076C24.5426 11.7394 24.8958 12.1014 25.009 12.5527C25.0574 12.8916 24.5522 13.0906 24.3811 12.777C24.182 12.417 23.8929 12.0707 23.4709 11.9787C22.8437 11.7932 22.151 12.235 21.9962 12.8568C21.8953 13.2543 21.9676 13.767 22.3582 13.9845C23.0448 14.3731 23.8643 14.4951 24.5086 14.9669C25.191 15.5007 25.2087 16.5718 24.756 17.2597C24.467 17.7301 23.9577 18.0172 23.4273 18.129C23.4136 18.3206 23.4675 18.5408 23.3502 18.7099C23.2098 18.9192 22.8252 18.8864 22.7516 18.6362C22.7134 18.4603 22.723 18.2783 22.6984 18.101C22.1019 17.966 21.5865 17.5195 21.3635 16.9515C21.2681 16.7197 21.5019 16.447 21.746 16.4968C21.9492 16.5152 22.018 16.7354 22.121 16.8779C22.4196 17.392 23.1143 17.6415 23.6604 17.3845C24.2604 17.1343 24.5706 16.3714 24.3095 15.7762C24.0934 15.3678 23.6066 15.2573 23.2118 15.0978C22.6998 14.883 22.1298 14.7405 21.7201 14.3451C21.2994 13.9374 21.2244 13.2924 21.341 12.7436C21.4978 12.0393 22.0882 11.4755 22.785 11.3092C22.798 11.1258 22.768 10.9328 22.8307 10.7562Z" fill="#E96315"></path>
    <path d="M7.1164 24.1027C7.31071 24.0692 7.50843 24.087 7.7041 24.0849C11.3625 24.089 15.0209 24.0808 18.6787 24.0883C18.9807 24.0645 19.1286 24.4613 18.9452 24.6747C18.8689 24.7783 18.7325 24.7872 18.6153 24.7878C14.8409 24.7844 11.0666 24.7858 7.2923 24.7872C7.19072 24.7817 7.0755 24.7831 6.99641 24.7094C6.80074 24.5492 6.85324 24.1586 7.1164 24.1027Z" fill="#E96315"></path>
    <path d="M12.7096 26.9064C13.2134 26.7734 13.7773 27.0905 13.9368 27.5841C14.1427 28.1206 13.8032 28.7751 13.2516 28.9265C12.696 29.1147 12.0435 28.7274 11.9317 28.1547C11.7913 27.6147 12.1717 27.0264 12.7096 26.9064Z" fill="#E96315"></path>
  </symbol>
  <symbol fill="none" xmlns="http://www.w3.org/2000/svg" viewBox="0 0 20 20" id="price">
    <path d="M10.6289 0.377584C10.7786 0.343169 10.9335 0.339728 11.0862 0.338867C13.4806 0.340158 15.875 0.338007 18.2694 0.340158C18.6596 0.336286 19.0502 0.484699 19.3302 0.758725C19.6292 1.04178 19.7953 1.45261 19.7901 1.863C19.791 4.28579 19.7901 6.70857 19.7901 9.13136C19.8013 9.55552 19.621 9.97236 19.316 10.2649C16.5857 12.9974 13.8531 15.7282 11.1219 18.4599C10.9189 18.662 10.7227 18.8832 10.4586 19.007C9.89805 19.2927 9.16804 19.1671 8.73312 18.7132C6.36669 16.3472 4.00112 13.9808 1.63469 11.6148C1.47767 11.4556 1.30646 11.3055 1.18988 11.1123C0.917142 10.6736 0.896493 10.0911 1.1417 9.63639C1.26602 9.38775 1.47896 9.20363 1.67168 9.00962C4.40334 6.27796 7.13499 3.54673 9.86622 0.814649C10.0731 0.601708 10.3377 0.442541 10.6289 0.377584ZM10.8006 1.28054C10.6887 1.30979 10.5962 1.38378 10.5145 1.46207C7.77683 4.20233 5.03614 6.93958 2.2976 9.67855C2.15908 9.82481 1.98313 9.95258 1.91516 10.15C1.84332 10.3587 1.90742 10.5996 2.06745 10.7506C4.50529 13.1884 6.94356 15.6271 9.38184 18.0649C9.59564 18.2998 9.99743 18.3011 10.2121 18.0675C13.0375 15.2425 15.8625 12.4167 18.688 9.59165C18.8114 9.47378 18.8798 9.30601 18.8729 9.13523C18.8717 6.70986 18.8725 4.2845 18.8725 1.85913C18.879 1.63802 18.7542 1.41604 18.5533 1.31968C18.386 1.23494 18.1924 1.26204 18.0121 1.25731C15.6737 1.25903 13.3356 1.25774 10.9976 1.25817C10.9314 1.25989 10.8642 1.2629 10.8006 1.28054Z" fill="#E96315"></path>
    <path d="M15.231 2.74143C15.6505 2.65712 16.0978 2.7238 16.4725 2.92985C16.9836 3.20431 17.3445 3.73645 17.4116 4.31246C17.4641 4.7164 17.3755 5.13755 17.163 5.48557C16.8834 5.95705 16.3809 6.28958 15.8367 6.35841C15.2792 6.43455 14.6911 6.23753 14.2958 5.8366C13.7056 5.26661 13.5856 4.28708 14.0222 3.5919C14.2833 3.15656 14.7324 2.83909 15.231 2.74143ZM15.4014 3.64224C15.0073 3.71967 14.6929 4.08403 14.6774 4.48582C14.6516 4.82868 14.8408 5.17326 15.1415 5.33845C15.4822 5.53977 15.9503 5.47697 16.2299 5.19864C16.451 4.98785 16.5525 4.66349 16.4932 4.36408C16.4102 3.87453 15.8849 3.52566 15.4014 3.64224Z" fill="#E96315"></path>
  </symbol>
  <symbol fill="none" xmlns="http://www.w3.org/2000/svg" viewBox="0 0 18 18" id="search">
    <path d="M17.0001 17.0001L15.2223 15.2223L14.3334 14.3334L12.5557 12.5557" stroke="#2C2C35" stroke-width="1.5" stroke-linecap="round"></path>
    <circle cx="7.66667" cy="7.66667" r="6.66667" stroke="#2C2C35" stroke-width="1.5"></circle>
  </symbol>
  <symbol fill="none" xmlns="http://www.w3.org/2000/svg" viewBox="0 0 18 18" id="search-orange">
    <path d="M17.0001 17.0001L15.2223 15.2223L14.3334 14.3334L12.5557 12.5557" stroke="#E96315" stroke-width="1.5" stroke-linecap="round"></path>
    <circle cx="7.66667" cy="7.66667" r="6.66667" stroke="#E96315" stroke-width="1.5"></circle>
  </symbol>
  <symbol fill="none" xmlns="http://www.w3.org/2000/svg" viewBox="0 0 17 13" id="telegram">
    <path d="M16.9516 1.18346L14.3861 12.2153C14.1926 12.9939 13.6879 13.1876 12.9706 12.8209L9.06174 10.1944L7.17569 11.8485C6.96704 12.0388 6.79242 12.198 6.39015 12.198L6.67094 8.56797L13.9156 2.59875C14.2306 2.34271 13.8473 2.20081 13.426 2.45688L4.46988 7.59904L0.614161 6.49866C-0.224532 6.25987 -0.239684 5.73387 0.788707 5.3671L15.87 0.0692267C16.5682 -0.169526 17.1793 0.211063 16.9516 1.18346Z" fill="#20A0E1"></path>
  </symbol>
  <symbol fill="none" xmlns="http://www.w3.org/2000/svg" viewBox="0 0 34 34" id="telegram-icon">
    <rect width="34" height="34" rx="17" fill="#419FD9"></rect>
    <rect width="34" height="34" rx="17" fill="url(#paint0_linear_1_1926)"></rect>
    <path d="M7.64105 16.6256C12.5847 14.4264 15.8813 12.9766 17.5307 12.2761C22.2402 10.2761 23.2188 9.9287 23.8566 9.9171C23.9969 9.9147 24.3106 9.9502 24.5138 10.1185C24.6853 10.2607 24.7325 10.4527 24.7551 10.5874C24.7777 10.7222 24.8058 11.0292 24.7835 11.2691C24.5283 14.0069 23.424 20.651 22.8622 23.7174C22.6245 25.015 22.1564 25.45 21.7032 25.4926C20.7185 25.5851 19.9706 24.8281 19.0168 24.1897C17.5243 23.1908 16.6811 22.5689 15.2323 21.5941C13.558 20.4676 14.6434 19.8484 15.5976 18.8365C15.8473 18.5717 20.1863 14.5421 20.2703 14.1765C20.2808 14.1308 20.2905 13.9604 20.1914 13.8704C20.0922 13.7804 19.9459 13.8112 19.8403 13.8357C19.6906 13.8704 17.3062 15.4795 12.6872 18.663C12.0104 19.1375 11.3974 19.3687 10.8481 19.3566C10.2426 19.3432 9.0779 19.007 8.21204 18.7196C7.15003 18.3672 6.30596 18.1808 6.37946 17.5822C6.41774 17.2704 6.83827 16.9515 7.64105 16.6256Z" fill="white"></path>
    <defs>
      <linearGradient id="paint0_linear_1_1926" x1="17" y1="0" x2="17" y2="33.7477" gradientUnits="userSpaceOnUse">
        <stop stop-color="#2AABEE"></stop>
        <stop offset="1" stop-color="#229ED9"></stop>
      </linearGradient>
    </defs>
  </symbol>
  <symbol fill="none" xmlns="http://www.w3.org/2000/svg" viewBox="0 0 15 17" id="viber">
    <path d="M6.48759 0.0236441C7.0559 -0.0137233 7.62422 0.00015608 8.19254 0.0179501C8.96491 0.0410823 9.73728 0.130052 10.4928 0.304433C11.1977 0.468138 11.8908 0.713695 12.5266 1.07847C12.9937 1.34182 13.4187 1.69948 13.7425 2.14433C14.1793 2.73865 14.4575 3.44507 14.6481 4.16395C14.9668 5.41665 15.0326 6.72629 14.9871 8.01813C14.9651 8.63025 14.9145 9.24058 14.8471 9.84914C14.7493 10.7104 14.525 11.5663 14.1034 12.3172C13.8378 12.7918 13.492 13.2109 13.0831 13.5538C12.7711 13.8172 12.4187 14.0272 12.0527 14.1926C11.6328 14.3777 11.191 14.4916 10.7525 14.6144C9.65128 14.8866 8.51464 14.9916 7.38475 14.9827C7.01206 14.9774 6.63936 14.9614 6.26667 14.9275C5.89903 15.3795 5.52803 15.8279 5.15364 16.2728C5.01367 16.4329 4.88551 16.6073 4.73204 16.7532C4.60388 16.8724 4.45379 16.981 4.28009 16.997C4.07941 17.0183 3.86186 16.9258 3.76068 16.7354C3.62408 16.4827 3.61902 16.1838 3.62239 15.9027C3.61902 15.4222 3.6342 14.9418 3.62914 14.4613C3.63082 14.4293 3.60215 14.4097 3.57686 14.4044C2.95795 14.2122 2.36602 13.9026 1.86853 13.4649C1.45819 13.101 1.11465 12.6607 0.855006 12.1659C0.472192 11.4488 0.254647 10.6463 0.136599 9.83846C0.106243 9.62493 0.0775744 9.40962 0.0640832 9.19432C0.0472192 8.93274 0.0202367 8.67295 0.0168639 8.41138C0.0134911 8.19785 0.00843201 7.98432 0 7.7708C0.00674561 6.87398 0.0236095 5.97538 0.156835 5.08924C0.25296 4.43264 0.411482 3.78494 0.669502 3.17816C0.876929 2.69239 1.15013 2.23508 1.49584 1.84361C1.63918 1.67813 1.80445 1.53756 1.97478 1.40588C2.5802 0.943238 3.28342 0.646078 4.00014 0.43255C4.8113 0.19589 5.64945 0.0734673 6.48759 0.0236441ZM5.00355 1.42047C4.34923 1.5646 3.70165 1.77991 3.11984 2.13223C2.81292 2.32441 2.5178 2.54861 2.28845 2.83865C1.91913 3.29596 1.65773 3.84402 1.49078 4.41698C1.25974 5.2017 1.18048 6.02556 1.15519 6.84408C1.13663 7.89037 1.10291 8.94911 1.30359 9.97939C1.41826 10.5808 1.61389 11.1716 1.92924 11.6894C2.2589 12.2323 2.71767 12.6745 3.25981 12.972C3.51615 13.1161 3.79103 13.2193 4.06929 13.3083C4.07941 13.5254 4.07097 13.7442 4.07266 13.9613C4.07603 14.6784 4.05411 15.3973 4.06591 16.1144C4.0676 16.2016 4.06086 16.2941 4.10302 16.3724C4.11249 16.3954 4.12803 16.4149 4.14776 16.4288C4.1675 16.4427 4.1906 16.4503 4.21432 16.4507C4.28346 16.4507 4.34417 16.4044 4.39308 16.3564C4.46222 16.287 4.5263 16.2105 4.5887 16.1375C5.21435 15.3955 5.80628 14.6215 6.41001 13.8581C6.44711 13.8136 6.47747 13.7585 6.52469 13.7247C6.59552 13.7211 6.66635 13.73 6.73717 13.7336C8.07955 13.7941 9.4371 13.6731 10.7356 13.3012C10.9768 13.2371 11.2179 13.1731 11.449 13.0752C11.9161 12.8812 12.3478 12.5859 12.6885 12.1944C13.0764 11.7567 13.3428 11.2139 13.5148 10.6463C13.7003 10.036 13.7627 9.39361 13.8133 8.75836C13.8712 8.06855 13.887 7.37553 13.8605 6.68358C13.8184 5.81701 13.7104 4.94511 13.4356 4.12481C13.2517 3.58031 12.9954 3.04827 12.6042 2.63723C12.3967 2.41302 12.1438 2.24398 11.8824 2.09807C11.3377 1.80269 10.7508 1.6034 10.1538 1.46638C9.37808 1.29022 8.5821 1.21727 7.78949 1.21015C6.85691 1.16958 5.91758 1.22474 5.00355 1.42047Z" fill="#7B32D8"></path>
    <path d="M7.3544 3.04293C7.56014 3.03047 7.76757 3.05361 7.97162 3.07852C8.59222 3.16393 9.19932 3.38635 9.72042 3.75291C10.2314 4.10701 10.6513 4.59991 10.9481 5.1622C11.336 5.90065 11.5148 6.7512 11.5249 7.59108C11.5232 7.65691 11.5333 7.72809 11.4962 7.78681C11.4287 7.89713 11.2635 7.91849 11.1741 7.82596C11.1168 7.7708 11.1151 7.68538 11.1134 7.61065C11.105 6.86508 10.9582 6.11239 10.6277 5.45046C10.351 4.88963 9.93774 4.4167 9.43036 4.08032C8.84518 3.69241 8.15544 3.4949 7.46739 3.48244C7.39487 3.47888 7.30887 3.48422 7.25321 3.42372C7.14191 3.30984 7.1925 3.06464 7.3544 3.04293Z" fill="#7B32D8"></path>
    <path d="M4.5887 3.54116C4.78601 3.48956 5.00018 3.58031 5.12666 3.74223C5.42178 4.12481 5.71859 4.5056 5.95637 4.93087C6.04912 5.1017 6.1638 5.26184 6.21776 5.45224C6.27679 5.68356 6.23294 5.95759 6.06599 6.12841C5.93613 6.25297 5.79279 6.36151 5.65956 6.48251C5.53308 6.59461 5.48586 6.78145 5.50779 6.94871C5.52634 7.05192 5.56681 7.14801 5.60223 7.24409C5.82483 7.84731 6.16211 8.40604 6.60732 8.85267C7.00872 9.25665 7.49719 9.55161 8.03065 9.71212C8.20434 9.76016 8.40503 9.70322 8.5197 9.55553C8.631 9.4114 8.73219 9.25837 8.84855 9.11958C8.9784 8.96833 9.18414 8.91317 9.37302 8.9363C9.50119 8.94876 9.61924 9.0146 9.72716 9.08399C10.1555 9.36158 10.5737 9.66408 10.9498 10.0182C11.0577 10.1249 11.1842 10.2246 11.2314 10.3794C11.3073 10.5911 11.2365 10.8242 11.1319 11.0093C10.9734 11.2833 10.7829 11.5396 10.5501 11.7495C10.3478 11.9275 10.0999 12.0752 9.82835 12.0752C9.6479 12.0841 9.48432 11.9969 9.31906 11.9346C8.70183 11.6801 8.12002 11.3438 7.55508 10.9844C7.03398 10.6516 6.53312 10.2833 6.08117 9.85269C5.22279 9.03951 4.5516 8.02703 4.02881 6.94693C3.77585 6.4398 3.5347 5.922 3.35594 5.37928C3.28096 5.13877 3.29605 4.8771 3.3981 4.64795C3.54819 4.30097 3.81295 4.02872 4.10133 3.80629C4.24973 3.69633 4.40657 3.58244 4.5887 3.54116Z" fill="#7B32D8"></path>
    <path d="M7.67482 4.16253C7.74902 4.14295 7.82828 4.16075 7.90417 4.16609C8.50453 4.2337 9.10151 4.46147 9.56021 4.88496C9.91267 5.20348 10.1741 5.63053 10.3191 6.09496C10.44 6.47322 10.4898 6.87274 10.4658 7.27114C10.4574 7.42951 10.2516 7.49357 10.1437 7.40104C10.0644 7.34588 10.0611 7.23555 10.0628 7.14658C10.0695 6.51845 9.87894 5.87253 9.47252 5.40277C9.07116 4.94191 8.49609 4.68211 7.9126 4.61094C7.81816 4.59492 7.71529 4.60382 7.62928 4.55578C7.49606 4.46645 7.52304 4.21413 7.67482 4.16253Z" fill="#7B32D8"></path>
    <path d="M7.97837 5.31736C8.05088 5.29423 8.12846 5.31024 8.20266 5.31736C8.51464 5.35651 8.83 5.47928 9.05429 5.72128C9.33423 6.02556 9.44891 6.46329 9.44891 6.87967C9.45228 6.97754 9.37134 7.05583 9.28533 7.07185C9.1892 7.09498 9.0779 7.03626 9.05429 6.93127C9.03068 6.82629 9.03743 6.71775 9.01719 6.61276C8.97503 6.35119 8.86204 6.08606 8.64787 5.93481C8.4573 5.79246 8.21952 5.76399 7.99354 5.73552C7.80635 5.69993 7.79961 5.37252 7.97837 5.31736Z" fill="#7B32D8"></path>
  </symbol>
  <symbol fill="none" xmlns="http://www.w3.org/2000/svg" viewBox="0 0 35 35" id="warranty-icon">
    <path d="M17.5313 4.53787C17.7271 4.39871 17.9549 4.51876 18.1231 4.64033C18.8021 5.10981 19.4849 5.57393 20.1662 6.03958C20.3696 6.17263 20.5539 6.34314 20.7832 6.43183C21.8812 6.37908 22.9762 6.26285 24.0734 6.1948C24.2783 6.16269 24.4687 6.28273 24.5421 6.47389C24.9841 7.38531 25.4229 8.29903 25.8565 9.21581C25.9146 9.32744 25.9666 9.46049 26.0935 9.51172C27.0546 9.98425 28.028 10.4331 28.9884 10.9064C29.1795 10.9828 29.2751 11.1885 29.2437 11.3873C29.1742 12.4333 29.0717 13.477 29.0067 14.5238C28.9761 14.6821 29.0832 14.8098 29.1619 14.9352C29.7255 15.7464 30.2783 16.5661 30.8395 17.3796C30.9703 17.5448 31.0062 17.7834 30.8709 17.9585C30.3372 18.7468 29.8019 19.5336 29.2583 20.315C29.1558 20.4848 28.9807 20.6446 29.0067 20.8594C29.0694 21.9307 29.1841 22.9981 29.2445 24.0693C29.2743 24.2994 29.0801 24.4562 28.8905 24.5365C27.9783 24.9715 27.0676 25.4112 26.1555 25.8463C26.053 25.8929 25.9551 25.9594 25.9115 26.068C25.4749 26.984 25.0307 27.897 24.5964 28.8145C24.5207 28.9544 24.4519 29.1334 24.2814 29.1792C24.1399 29.2098 23.9939 29.1907 23.8517 29.1838C22.8791 29.1028 21.9049 29.0385 20.9323 28.9613C20.7993 28.933 20.6777 28.9927 20.573 29.0684C19.7908 29.612 19.0009 30.1457 18.2172 30.6871C18.0841 30.7727 17.9549 30.8767 17.7982 30.9134C17.6422 30.9394 17.5076 30.8415 17.383 30.7643C16.5526 30.1924 15.7199 29.625 14.8888 29.0554C14.7022 28.8948 14.4491 28.9781 14.2289 28.9858C13.3565 29.0515 12.4833 29.1142 11.6116 29.1876C11.3899 29.2045 11.0886 29.2358 10.9793 28.9881C10.4922 28.0132 10.0358 27.0222 9.55787 26.042C9.50817 25.9158 9.37207 25.87 9.26273 25.8103C8.39412 25.4074 7.53851 24.9777 6.66991 24.5739C6.50857 24.4906 6.30212 24.4164 6.25089 24.2207C6.22184 23.8911 6.27842 23.5608 6.29448 23.2313C6.36406 22.4422 6.41682 21.6508 6.47646 20.861C6.50398 20.695 6.38776 20.5635 6.30518 20.4343C5.74166 19.6215 5.18884 18.8011 4.62608 17.9875C4.50374 17.8338 4.47468 17.6098 4.60008 17.4485C5.19419 16.5676 5.80053 15.6952 6.39847 14.8166C6.50322 14.6867 6.48104 14.5161 6.4711 14.3617C6.38853 13.3677 6.30289 12.3737 6.24248 11.3782C6.21496 11.1885 6.29601 10.9905 6.48104 10.9156C7.44064 10.4468 8.40712 9.99113 9.36901 9.52625C9.55481 9.45361 9.60222 9.24487 9.68633 9.08583C10.0809 8.25468 10.4846 7.42737 10.8776 6.59546C10.9625 6.41731 11.0741 6.18639 11.3066 6.19557C12.4504 6.24909 13.5928 6.38519 14.7359 6.42419C15.684 5.82243 16.587 5.14728 17.5313 4.53787ZM15.2046 7.10852C15.0723 7.20639 14.9171 7.2798 14.7473 7.25915C13.6838 7.20716 12.624 7.06264 11.5589 7.03894C11.159 7.93507 10.7102 8.80827 10.298 9.69829C10.2154 9.85809 10.1497 10.05 9.97688 10.1349C9.02034 10.6181 8.03169 11.0417 7.08586 11.5448C7.12868 12.535 7.22043 13.5244 7.30072 14.5139C7.31448 14.7065 7.33054 14.9183 7.20437 15.082C6.6355 15.9146 6.06433 16.7473 5.49545 17.5807C5.37541 17.7008 5.52068 17.8361 5.58109 17.9439C6.09797 18.678 6.59268 19.4273 7.10803 20.1629C7.19902 20.3028 7.31677 20.4465 7.3053 20.6247C7.25331 21.6974 7.1325 22.7679 7.08203 23.8407C8.02175 24.3537 9.01728 24.7659 9.97076 25.2552C10.1482 25.3363 10.2147 25.5297 10.2973 25.691C10.7094 26.5795 11.1559 27.452 11.5558 28.3458C12.6477 28.3405 13.7335 28.1676 14.8238 28.1309C14.9484 28.1202 15.057 28.1852 15.1572 28.251C16.0181 28.8336 16.8653 29.4377 17.7362 30.0035C18.6431 29.44 19.5048 28.7954 20.3986 28.2074C20.4896 28.1462 20.5974 28.1202 20.7068 28.1317C21.775 28.1944 22.8408 28.3015 23.9105 28.3603C24.3456 27.4413 24.7937 26.5283 25.2257 25.6077C25.2945 25.4578 25.3809 25.3026 25.543 25.2384C26.2151 24.915 26.8872 24.5938 27.5585 24.2704C27.8361 24.1305 28.1335 24.0242 28.3904 23.8453C28.3621 22.7733 28.2322 21.7028 28.174 20.6308C28.1595 20.4985 28.2322 20.3838 28.3002 20.2783C28.8576 19.4586 29.4242 18.6451 29.977 17.8224C30.1032 17.6885 29.9533 17.5402 29.8837 17.4217C29.36 16.6716 28.853 15.91 28.3293 15.1607C28.249 15.0384 28.1549 14.9076 28.1756 14.7532C28.2276 13.6881 28.3576 12.6268 28.4042 11.5617C28.3254 11.4821 28.2199 11.437 28.1221 11.3873C27.3054 11.0096 26.5011 10.6051 25.686 10.2259C25.5399 10.154 25.3717 10.0859 25.3021 9.92614C24.8273 8.96425 24.3777 7.99013 23.9036 7.02824C22.9142 7.10088 21.9256 7.17504 20.9369 7.25227C20.7572 7.25456 20.5539 7.29738 20.3979 7.18269C19.504 6.58935 18.6339 5.96006 17.7332 5.37743C16.8913 5.95548 16.0457 6.52818 15.2046 7.10852Z" fill="#E96315"></path>
    <path d="M18.1606 11.6664C18.4007 11.4095 18.7295 11.1671 19.1019 11.2206C19.6723 11.3147 20.1463 11.7849 20.2771 12.3438C20.4652 13.0993 20.2457 13.8731 20.0079 14.5911C20.4346 14.5987 20.8773 14.5498 21.2856 14.7035C21.9799 14.9458 22.5044 15.6164 22.5587 16.3527C22.587 17.7283 22.5587 19.1054 22.5717 20.4825C22.5763 20.9137 22.5511 21.387 22.2674 21.738C21.9371 22.1562 21.3743 22.29 20.8643 22.2885C19.5369 22.2862 18.2095 22.2908 16.8822 22.2862C16.3959 22.2847 15.9417 22.0591 15.5785 21.7471C15.2459 22.0973 14.7779 22.3481 14.2825 22.2954C13.553 22.2518 12.926 21.6003 12.9146 20.8693C12.9023 19.3898 12.9161 17.9095 12.9084 16.43C12.9 16.0867 12.9367 15.7265 13.1279 15.4321C13.4574 14.8686 14.1777 14.5804 14.8047 14.7692C15.0807 14.8319 15.291 15.0292 15.5135 15.1905C16.191 14.6775 16.7331 13.9893 17.1299 13.2392C17.4296 12.6895 17.734 12.1305 18.1606 11.6664ZM18.8526 12.1213C18.4053 12.5686 18.1178 13.1444 17.8119 13.6911C17.438 14.3793 16.9548 15.0108 16.3729 15.5354C16.1634 15.738 15.8851 15.9513 15.8912 16.2725C15.8859 17.6771 15.8958 19.0817 15.8866 20.4855C15.8346 21.0544 16.4265 21.4879 16.9548 21.4734C18.2317 21.4803 19.5086 21.4742 20.7855 21.4765C21.057 21.4658 21.3644 21.4665 21.5823 21.2799C21.7581 21.1178 21.7528 20.8594 21.7574 20.6392C21.7497 19.2606 21.7597 17.882 21.752 16.5034C21.7536 15.9146 21.2214 15.3916 20.6311 15.4077C19.9919 15.4054 19.3534 15.4023 18.7142 15.4123C18.9581 14.8648 19.2747 14.3456 19.4108 13.7553C19.5224 13.2782 19.6524 12.7124 19.3603 12.275C19.2517 12.132 19.0078 11.9363 18.8526 12.1213ZM14.2389 15.5484C13.917 15.6218 13.696 15.9483 13.7266 16.2748C13.7312 17.8055 13.7151 19.3363 13.735 20.8663C13.7419 21.413 14.4989 21.6921 14.8674 21.2952C15.1977 21.0024 14.9668 20.5505 14.9974 20.1797C15.0173 18.7812 14.9614 17.3804 15.031 15.985C14.937 15.6608 14.5631 15.4597 14.2389 15.5484Z" fill="#E96315"></path>
  </symbol>
  <symbol fill="none" xmlns="http://www.w3.org/2000/svg" viewBox="0 0 120 17" id="webmaestro">
    <path d="M114.247 16.0771C111.082 16.0771 108.835 13.6863 108.835 10.6226C108.835 7.55893 111.082 5.16814 114.247 5.16814C117.413 5.16814 119.66 7.55893 119.66 10.6226C119.66 13.6863 117.413 16.0771 114.247 16.0771ZM7.23621 7.90252L4.47886 15.9339H3.63269L0 5.35425H1.38597L4.08496 13.2568L6.79853 5.35425H7.67388L10.402 13.2568L13.0864 5.35425H14.487L10.8397 15.9339H10.0081L7.23621 7.90252ZM16.3544 10.0213H24.5389C24.2909 7.87389 22.7153 6.2848 20.454 6.2848C18.1926 6.2848 16.617 7.87389 16.3544 10.0213ZM16.3544 11.1666C16.5587 13.3427 18.1489 14.9747 20.454 14.9747C21.4314 14.9747 22.3651 14.6884 23.1675 14.1301C23.4739 13.9153 23.8386 13.6004 24.0429 13.2854L24.1158 13.1709H25.531L25.3267 13.5574C25.0787 14.0298 24.6119 14.5166 24.1888 14.8602C23.1238 15.7335 21.8253 16.12 20.4394 16.12C17.2443 16.12 15.0122 13.7149 15.0122 10.6369C15.0122 7.55894 17.2443 5.1395 20.4394 5.1395C21.6503 5.1395 22.832 5.51172 23.7949 6.24185C24.4806 6.77155 25.0203 7.44441 25.3705 8.21748C25.7498 9.06213 25.9103 9.99268 25.8665 10.9089L25.8519 11.1523H16.3544V11.1666ZM29.1637 10.6226C29.1637 13.0277 30.7685 14.9604 33.2924 14.9604C35.8163 14.9604 37.4357 13.0134 37.4357 10.6226C37.4357 8.23179 35.8309 6.2848 33.2924 6.2848C30.7539 6.2848 29.1637 8.23179 29.1637 10.6226ZM29.1637 13.9869V15.9339H27.8652V0H29.1637V7.27261C29.3241 7.04355 29.5138 6.82881 29.6889 6.6427C30.6663 5.65488 31.8918 5.1395 33.2924 5.1395C36.4874 5.1395 38.7195 7.54462 38.7195 10.6226C38.7195 13.7149 36.4728 16.1057 33.2924 16.1057C31.921 16.1057 30.7101 15.6189 29.7326 14.6598C29.5284 14.445 29.3387 14.2303 29.1637 13.9869ZM48.3484 6.71428C49.1362 5.68352 50.2741 5.16814 51.5726 5.16814C52.5063 5.16814 53.3962 5.41151 54.1402 5.96984C55.4824 6.98629 55.9201 8.68991 55.9201 10.279V15.9053H53.6588V10.5081C53.6588 9.09076 53.3378 7.27261 51.5142 7.27261C49.6906 7.27261 49.3696 9.07645 49.3696 10.5081V15.9053H47.1229V10.5081C47.1229 9.09076 46.8019 7.27261 44.9783 7.27261C43.1546 7.27261 42.8337 9.07645 42.8337 10.5081V15.9053H40.5724V5.33993H42.8337V5.76941C43.4902 5.33993 44.2488 5.15382 45.0366 5.15382C46.3642 5.16814 47.546 5.65488 48.3484 6.71428ZM87.2138 13.9726C88.0162 13.9726 89.5335 13.8151 89.5335 12.7557C89.5335 12.6125 89.5189 12.4551 89.4313 12.3262C89.1104 11.7822 87.6952 11.5818 87.1117 11.4959C85.2443 11.2525 82.9246 10.5653 82.9246 8.30338C82.9246 7.85957 83.0121 7.43009 83.2018 7.04355C83.9166 5.56899 85.6819 5.15382 87.1992 5.15382C88.4247 5.15382 89.6939 5.45446 90.5839 6.34206C91.1383 6.90039 91.2987 7.35851 91.4446 7.9741H89.1396C89.0812 7.88821 88.9791 7.77368 88.9353 7.74504C88.483 7.35851 87.7974 7.2583 87.2138 7.2583C86.5135 7.2583 85.1859 7.37282 85.1859 8.30338C85.1859 8.38927 85.2005 8.48949 85.2443 8.57538C85.4923 9.06213 86.8345 9.29119 87.3305 9.36277C89.373 9.66341 91.7802 10.2504 91.7802 12.7414C91.7802 13.3283 91.6343 13.8867 91.2987 14.3877C90.438 15.7048 88.6873 16.0771 87.1992 16.0771C85.9008 16.0771 84.544 15.7764 83.5665 14.8602C83.1872 14.5023 82.8079 13.9726 82.6766 13.4715L82.6036 13.1566H84.9671C85.0546 13.2568 85.1567 13.357 85.2297 13.4142C85.7841 13.8437 86.5427 13.9726 87.2138 13.9726ZM94.7564 5.35425V2.66281H97.0177V5.35425H99.9939V7.44441H97.0177V11.5102C97.0177 12.0685 97.0177 12.6555 97.1198 13.1995C97.149 13.3856 97.2219 13.7006 97.3824 13.8294C97.5137 13.9439 97.7763 13.9583 97.9514 13.9583C98.3161 13.9583 98.6808 13.8867 99.0456 13.8151L100.008 13.6004V15.6762L99.4395 15.848C98.9434 15.9912 98.3745 16.0627 97.8638 16.0627C97.1636 16.0627 96.4779 15.9196 95.9235 15.4758C95.3983 15.0463 95.1357 14.4593 94.9752 13.8151C94.8001 13.0563 94.771 12.2833 94.771 11.5102V7.44441H92.6847V5.35425H94.7564ZM104.385 5.69783C105.013 5.3113 105.727 5.15382 106.471 5.15382C106.982 5.15382 107.536 5.2254 108.032 5.36856L108.587 5.54036V7.7021L107.58 7.40146C107.23 7.30124 106.836 7.2583 106.471 7.2583C105.99 7.2583 105.523 7.35851 105.173 7.7021C104.487 8.37496 104.414 9.80657 104.414 10.6942V15.8909H102.168V5.33993H104.414V5.69783H104.385ZM66.2346 6.25616V5.35425H68.4814V15.9196H66.2346V15.0033C65.3301 15.7191 64.2505 16.0771 63.0688 16.0771C59.9029 16.0771 57.6562 13.6863 57.6562 10.6226C57.6562 7.55893 59.9029 5.16814 63.0688 5.16814C64.2505 5.16814 65.3301 5.52604 66.2346 6.25616ZM66.2346 10.6226C66.2346 8.76149 65.0383 7.2583 63.0688 7.2583C61.0993 7.2583 59.9029 8.76149 59.9029 10.6083C59.9029 12.4551 61.0993 13.9583 63.0688 13.9583C65.0383 13.9583 66.2346 12.4694 66.2346 10.6226ZM72.6538 11.639C73.0186 13.0563 74.1565 13.9726 75.6884 13.9726C76.447 13.9726 77.1619 13.7721 77.7746 13.3283C77.8476 13.2854 77.9205 13.2281 77.9935 13.1566H80.7216L80.5611 13.4715C80.2985 13.9726 79.8463 14.445 79.4086 14.8029C78.3582 15.6619 77.0598 16.0627 75.6884 16.0627C72.5225 16.0627 70.2758 13.6719 70.2758 10.6083C70.2758 7.54462 72.5225 5.1395 75.6884 5.1395C76.8993 5.1395 78.0664 5.51172 79.0293 6.24185C79.715 6.77155 80.2548 7.44441 80.6049 8.21748C81.1447 9.3914 81.1301 10.3649 81.0718 11.6104H72.6538V11.639ZM72.683 9.53456H78.6937C78.2998 8.16021 77.1765 7.27261 75.6884 7.27261C74.2003 7.2583 73.0769 8.16021 72.683 9.53456ZM117.399 10.6226C117.399 8.77581 116.202 7.27261 114.233 7.27261C112.263 7.27261 111.067 8.77581 111.067 10.6226C111.067 12.4694 112.263 13.9726 114.233 13.9726C116.202 13.9726 117.399 12.4694 117.399 10.6226Z" fill="white"></path>
  </symbol>
  <symbol fill="none" xmlns="http://www.w3.org/2000/svg" viewBox="0 0 16 16" id="whatsup">
    <path d="M6.2949 0.213588C7.32982 -0.0363163 8.41505 -0.0614742 9.46507 0.109601C10.1409 0.219682 10.7988 0.420526 11.4208 0.706687C11.9978 0.973534 12.5398 1.31039 13.0344 1.70966C13.5168 2.0908 13.9541 2.52578 14.3377 3.00614C14.724 3.49248 15.0475 4.02556 15.3005 4.59278C15.5922 5.25166 15.7969 5.9457 15.9094 6.65742C15.9765 7.13039 16.0167 7.61008 15.9933 8.08808C15.958 8.92501 15.802 9.76026 15.5052 10.5435C15.0573 11.7276 14.3193 12.8027 13.3666 13.6363C12.8805 14.0616 12.3456 14.4275 11.7731 14.7265C11.0326 15.1124 10.2345 15.3758 9.40971 15.5064C8.38151 15.6758 7.31975 15.6338 6.30496 15.4007C5.69054 15.2611 5.09683 15.0424 4.53873 14.7499C4.47499 14.7181 4.41293 14.6762 4.33913 14.6678C4.27203 14.6594 4.20662 14.6778 4.14456 14.6996C2.85468 15.1105 1.56481 15.5192 0.274941 15.9257C0.182687 15.9475 0.0988205 16.0062 0.00153503 15.9995C-0.00306792 15.9612 0.00272611 15.9224 0.0183084 15.8871C0.466157 14.5755 0.903942 13.2589 1.35682 11.9457C1.38869 11.8702 1.36856 11.7863 1.32663 11.7209C0.984198 11.1427 0.721284 10.521 0.544992 9.87263C0.325261 9.06421 0.226298 8.2189 0.271586 7.38197C0.354181 5.97255 0.816703 4.61176 1.6101 3.44389C2.2911 2.45434 3.19351 1.61573 4.24184 1.02703C4.88533 0.662361 5.57626 0.388609 6.2949 0.213588ZM7.49587 1.3457C7.18724 1.37757 6.87694 1.41782 6.57669 1.50336C5.73802 1.72308 4.92955 2.07864 4.22842 2.59019C3.76985 2.9255 3.35954 3.32224 3.009 3.76927C2.63998 4.23889 2.33806 4.75882 2.09653 5.30391C1.8102 5.95064 1.63987 6.64269 1.59333 7.34843C1.54392 8.1436 1.63766 8.94118 1.87009 9.70323C2.06452 10.3341 2.35656 10.9305 2.73559 11.471C2.77417 11.5264 2.8094 11.5884 2.80772 11.6589C2.80436 11.7394 2.76746 11.8132 2.74398 11.8903C2.61147 12.2794 2.47896 12.6669 2.34813 13.056C2.24581 13.3461 2.15691 13.6396 2.04956 13.9281C2.0395 13.9516 2.04956 13.9751 2.05292 13.9986C2.10995 14.0137 2.16027 13.9751 2.21394 13.96C2.82114 13.7671 3.42833 13.5776 4.03385 13.378C4.15462 13.3411 4.27036 13.2925 4.39448 13.2656C4.51357 13.2405 4.63434 13.2841 4.73498 13.3461C5.42101 13.7554 6.17413 14.0573 6.9608 14.2015C8.07959 14.4112 9.24533 14.2904 10.3172 13.9248C11.1817 13.6295 11.9712 13.1487 12.6302 12.5159C13.2709 11.902 13.801 11.1658 14.1549 10.3506C14.5759 9.37785 14.7369 8.30109 14.6514 7.24612C14.5524 6.03686 14.0861 4.86784 13.3582 3.90009C12.6705 2.98937 11.7345 2.27488 10.6878 1.82371C9.97857 1.52506 9.22103 1.35742 8.45195 1.32893C8.13326 1.32055 7.81289 1.31216 7.49587 1.3457Z" fill="#0E972C"></path>
    <path d="M5.38914 3.98731C5.55016 3.96047 5.70783 4.02085 5.86886 4.00743C5.94769 4.0024 6.03156 4.00576 6.10201 4.04433C6.20097 4.09465 6.26639 4.19193 6.30496 4.29256C6.49283 4.7823 6.67566 5.27372 6.86184 5.76515C6.89539 5.86578 6.95242 5.96473 6.94403 6.07375C6.939 6.16264 6.89203 6.2398 6.8501 6.31527C6.74107 6.50144 6.59347 6.66077 6.44251 6.8134C6.37206 6.88888 6.28987 6.95596 6.2429 7.04989C6.20265 7.13375 6.24626 7.22432 6.28651 7.29811C6.55992 7.79792 6.89539 8.26586 7.3013 8.66504C7.67948 9.0396 8.11488 9.35155 8.59118 9.58918C8.69517 9.64285 8.80587 9.6831 8.90484 9.74516C8.97528 9.78541 9.0558 9.82064 9.13966 9.81728C9.2137 9.81166 9.28302 9.77879 9.33423 9.72503C9.57074 9.49022 9.78712 9.23697 9.99678 8.97868C10.0505 8.91662 10.1058 8.84786 10.1846 8.81934C10.2719 8.79083 10.3608 8.82941 10.4413 8.86295C10.978 9.10782 11.4913 9.39966 12.0113 9.6764C12.0784 9.71162 12.1471 9.75355 12.184 9.82231C12.2276 9.90282 12.226 9.99674 12.2209 10.084C12.1991 10.3758 12.1119 10.6659 11.9442 10.9075C11.7865 11.1356 11.5651 11.315 11.3185 11.4391C11.0652 11.5666 10.7902 11.6454 10.51 11.689C10.3179 11.7187 10.1221 11.7147 9.93137 11.6773C9.76196 11.6454 9.59925 11.5851 9.43655 11.5331C8.80587 11.3268 8.18358 11.0802 7.61496 10.7364C7.16151 10.4593 6.74211 10.13 6.36535 9.75523C5.93092 9.32754 5.55352 8.84618 5.20463 8.34972C4.9981 8.05295 4.80718 7.7456 4.63266 7.42894C4.50739 7.20963 4.40778 6.97665 4.33577 6.73457C4.26365 6.49305 4.20662 6.24483 4.19488 5.99325C4.18649 5.51524 4.319 5.02885 4.59576 4.63639C4.71456 4.46733 4.85434 4.31404 5.01174 4.18018C5.11741 4.08123 5.24657 4.00861 5.38914 3.98731Z" fill="#0E972C"></path>
  </symbol>
  <symbol fill="none" xmlns="http://www.w3.org/2000/svg" viewBox="0 0 34 34" id="youtube-icon">
    <rect width="34" height="34" rx="17" fill="#FF0000"></rect>
    <path fill-rule="evenodd" clip-rule="evenodd" d="M25.3144 10.0157C26.2246 10.2607 26.9423 10.9784 27.1873 11.8886C27.6424 13.5515 27.6249 17.0173 27.6249 17.0173C27.6249 17.0173 27.6249 20.4656 27.1873 22.1285C26.9423 23.0387 26.2246 23.7563 25.3144 24.0014C23.6515 24.439 17 24.439 17 24.439C17 24.439 10.3659 24.439 8.68553 23.9839C7.77532 23.7388 7.05766 23.0212 6.8126 22.1109C6.375 20.4656 6.375 16.9998 6.375 16.9998C6.375 16.9998 6.375 13.5515 6.8126 11.8886C7.05766 10.9784 7.79283 10.2432 8.68553 9.99815C10.3484 9.56055 17 9.56055 17 9.56055C17 9.56055 23.6515 9.56055 25.3144 10.0157ZM20.4132 17.0002L14.882 20.1859V13.8145L20.4132 17.0002Z" fill="white"></path>
  </symbol>
  <symbol fill="none" xmlns="http://www.w3.org/2000/svg" viewBox="0 0 5 10" id="arrow-left">
    <path d="M3.55333 8.63181L1.01649 5.24935C0.771764 4.92305 0.771764 4.47439 1.01649 4.14809L3.55333 0.765625" stroke="#E96315" stroke-width="1.37658" stroke-linecap="round" stroke-dasharray="0.18 0.18"></path>
  </symbol>
  <symbol fill="none" xmlns="http://www.w3.org/2000/svg" viewBox="0 0 5 10" id="arrow-right">
    <path d="M1.37733 8.63181L3.91417 5.24935C4.1589 4.92305 4.1589 4.47439 3.91417 4.14809L1.37733 0.765625" stroke="#E96315" stroke-width="1.37658" stroke-linecap="round" stroke-dasharray="0.18 0.18"></path>
  </symbol>
  <symbol fill="none" xmlns="http://www.w3.org/2000/svg" viewBox="0 0 24 24" id="burger-menu">
    <path d="M9 18H20M4 12H20M4 6H20" stroke="#2C2C35" stroke-width="1.5" stroke-linecap="round"></path>
  </symbol>
  <symbol fill="none" xmlns="http://www.w3.org/2000/svg" viewBox="0 0 21 21" id="call">
    <path d="M16.6632 9.96126V9.44212C16.6632 9.36443 16.6632 9.32559 16.6627 9.29274C16.6271 6.80995 14.6231 4.80587 12.1403 4.77031C12.1074 4.76984 12.0686 4.76984 11.9909 4.76984H11.4718M19.9079 10.6102V9.70169C19.9079 8.92654 19.9079 8.53897 19.8787 8.21227C19.5619 4.67474 16.7584 1.87118 13.2208 1.55446C12.8941 1.52521 12.5066 1.52521 11.7314 1.52521L10.8229 1.52521M7.86581 8.15427C7.44986 9.1085 7.66037 10.2201 8.39643 10.9561L10.596 13.1557C11.3321 13.8918 12.4437 14.1023 13.3979 13.6864C14.3521 13.2704 15.4637 13.4809 16.1998 14.217L17.538 15.5552C17.6028 15.62 17.6352 15.6525 17.6615 15.681C18.3067 16.3832 18.3067 17.4626 17.6615 18.1648C17.6352 18.1933 17.6028 18.2257 17.538 18.2906L16.7246 19.104C16.0622 19.7664 15.1073 20.0445 14.1928 19.8413C7.96183 18.4566 3.09558 13.5903 1.71093 7.35939C1.50771 6.44492 1.78578 5.49 2.44819 4.82759L3.2616 4.01418C3.32644 3.94935 3.35885 3.91693 3.38741 3.89069C4.08961 3.24546 5.16895 3.24546 5.87115 3.89069C5.89971 3.91693 5.93213 3.94935 5.99696 4.01418L7.33518 5.3524C8.07124 6.08846 8.28175 7.20004 7.86581 8.15427Z" stroke="white" stroke-width="1.37658" stroke-linecap="round"></path>
  </symbol>
  <symbol fill="none" xmlns="http://www.w3.org/2000/svg" viewBox="0 0 22 20" id="cart">
    <circle cx="10.5" cy="18.5" r="1.5" fill="#2C2C35"></circle>
    <circle cx="16.5" cy="18.5" r="1.5" fill="#2C2C35"></circle>
    <path d="M3 7L2 7" stroke="#2C2C35" stroke-width="1.5" stroke-linecap="round"></path>
    <path d="M4 13L3 13" stroke="#2C2C35" stroke-width="1.5" stroke-linecap="round"></path>
    <path d="M4 10L1 10" stroke="#2C2C35" stroke-width="1.5" stroke-linecap="round"></path>
    <path d="M5.7619 4.5L7.8443 13.8269C7.99737 14.5125 8.60577 15 9.30826 15H17.4536C18.1561 15 18.7645 14.5125 18.9176 13.8269L20.5921 6.32686C20.8014 5.3897 20.0884 4.5 19.1282 4.5H5.7619ZM5.7619 4.5L5.11052 2.10616C4.93283 1.45315 4.33989 1 3.66315 1H1" stroke="#2C2C35" stroke-width="1.5" stroke-linecap="round"></path>
  </symbol>
  <symbol fill="none" xmlns="http://www.w3.org/2000/svg" viewBox="0 0 20 19" id="cart-button">
    <circle cx="9.86401" cy="16.8829" r="1.37658" fill="white"></circle>
    <circle cx="15.3702" cy="16.8829" r="1.37658" fill="white"></circle>
    <path d="M2.98108 6.32916L2.06335 6.32916" stroke="white" stroke-width="1.37658" stroke-linecap="round"></path>
    <path d="M3.8988 11.8354L2.98108 11.8354" stroke="white" stroke-width="1.37658" stroke-linecap="round"></path>
    <path d="M3.89879 9.08234L1.14563 9.08234" stroke="white" stroke-width="1.37658" stroke-linecap="round"></path>
    <path d="M5.51573 4.03484L7.42679 12.5943C7.56727 13.2235 8.12561 13.6709 8.7703 13.6709H16.2455C16.8902 13.6709 17.4485 13.2235 17.589 12.5943L19.1257 5.71139C19.3178 4.85133 18.6635 4.03484 17.7822 4.03484H5.51573ZM5.51573 4.03484L4.91794 1.83796C4.75487 1.23868 4.21072 0.822815 3.58966 0.822815H1.14563" stroke="white" stroke-width="1.37658" stroke-linecap="round"></path>
  </symbol>
  <symbol fill="none" xmlns="http://www.w3.org/2000/svg" viewBox="0 0 24 24" id="close">
    <path d="M6 6L17 17" stroke="#E96315" stroke-width="1.5" stroke-linecap="round"></path>
    <path d="M17 6L6 17" stroke="#E96315" stroke-width="1.5" stroke-linecap="round"></path>
  </symbol>
  <symbol fill="none" xmlns="http://www.w3.org/2000/svg" viewBox="0 0 35 35" id="delivery-icon">
    <path d="M2.89966 7.66789C3.50712 6.99974 4.42821 6.70113 5.31383 6.70453C10.6569 6.70385 15.9993 6.70385 21.3417 6.70385C21.5347 6.68204 21.7522 6.80817 21.7419 7.02224C21.7644 8.12604 21.729 9.2312 21.7583 10.335C22.4599 10.3275 23.1607 10.3336 23.8623 10.3302C24.3143 10.3255 24.7718 10.3739 25.1999 10.5266C25.9185 10.7816 26.541 11.2506 27.0809 11.7797C28.242 12.8903 29.187 14.1986 30.0964 15.5158C30.9234 16.7342 31.7191 17.9784 32.3736 19.299C32.5788 19.7272 32.7881 20.1608 32.891 20.6278C32.966 20.9394 32.8726 21.2543 32.8092 21.5591C32.4929 22.9118 32.0184 24.2208 31.5036 25.5093C31.4607 25.6361 31.3611 25.7527 31.2166 25.752C30.3657 25.7882 29.5115 25.7316 28.6606 25.7786C28.5434 26.5565 28.1043 27.2874 27.4396 27.7162C26.6957 28.218 25.7003 28.3032 24.8754 27.9596C24.3429 27.7435 23.8868 27.3522 23.5855 26.864C23.145 26.1495 23.0578 25.2325 23.3509 24.4464C23.5712 23.8437 24.0123 23.3229 24.5734 23.0092C25.2483 22.6268 26.0896 22.5497 26.8232 22.804C27.8057 23.1265 28.5209 24.0455 28.6668 25.06C29.339 25.0668 30.0119 25.058 30.6841 25.0648C30.7994 25.0566 30.9766 25.0982 31.0087 24.9428C31.4791 23.7933 31.8807 22.6125 32.1588 21.4016C32.2147 21.1269 32.2965 20.8371 32.2025 20.5617C32.0763 20.1676 31.8882 19.7981 31.7041 19.4292C31.0618 18.1959 30.3173 17.0185 29.5408 15.8656C28.5986 14.4973 27.6195 13.1242 26.3412 12.0456C25.7256 11.5172 24.9702 11.0829 24.1391 11.07C23.2732 11.0631 22.4074 11.0693 21.5422 11.0693C21.3936 11.0604 21.204 11.0706 21.1106 10.9302C21.037 10.8007 21.054 10.6432 21.0465 10.5C21.0499 9.48005 21.0499 8.46011 21.0479 7.44017C15.8493 7.42586 10.6508 7.43949 5.45223 7.43336C4.77591 7.42108 4.06414 7.58676 3.55348 8.05445C2.86557 8.68578 2.62149 9.65868 2.61877 10.5641C2.61809 13.4194 2.61672 16.274 2.61945 19.1292C8.76158 19.1333 14.903 19.1292 21.0452 19.1313C21.0533 17.3219 21.0465 15.5124 21.0486 13.7037C21.0533 13.4575 21.0268 13.2087 21.0718 12.966C21.142 12.6619 21.6588 12.6701 21.7269 12.9721C21.7706 13.236 21.744 13.5053 21.7488 13.7718C21.7474 15.614 21.7467 17.4568 21.7501 19.299C21.7529 19.4545 21.7297 19.6508 21.5654 19.7203C21.3383 19.7878 21.0956 19.7503 20.8618 19.7585C15.0442 19.7565 9.22655 19.7585 3.40827 19.7572C3.14442 19.7544 2.87989 19.7517 2.61604 19.7749C2.62218 20.9796 2.61331 22.185 2.62081 23.3897C2.62831 23.8894 2.70808 24.4921 3.17919 24.773C3.84801 25.1378 4.63751 24.9694 5.36156 25.0512C5.67927 25.1316 5.65063 25.6818 5.3152 25.7111C4.90818 25.7459 4.49706 25.7248 4.08936 25.705C3.47644 25.662 2.80217 25.5141 2.39446 25.0144C1.98335 24.5023 1.92199 23.8144 1.92063 23.1817C1.91995 18.9533 1.91858 14.725 1.92131 10.4966C1.9254 9.48482 2.1947 8.42398 2.89966 7.66789ZM25.521 23.4054C24.5127 23.6242 23.7668 24.6721 23.9318 25.6995C24.0613 26.7808 25.157 27.6222 26.2362 27.4544C27.3005 27.3392 28.1452 26.2872 28.0184 25.2223C27.9338 24.0387 26.6794 23.1054 25.521 23.4054Z" fill="#E96315"></path>
    <path d="M12.0112 9.15455C12.1251 8.91184 12.5239 8.9207 12.6419 9.1566C12.6882 9.31341 12.6651 9.48044 12.6842 9.64134C12.8887 9.75247 13.1314 9.77974 13.3305 9.90587C13.7232 10.1377 14.0763 10.4997 14.1895 10.951C14.2379 11.2899 13.7327 11.489 13.5616 11.1753C13.3625 10.8154 13.0735 10.469 12.6514 10.377C12.0242 10.1915 11.3315 10.6333 11.1767 11.2551C11.0758 11.6526 11.1481 12.1653 11.5388 12.3828C12.2253 12.7714 13.0448 12.8934 13.6891 13.3652C14.3716 13.899 14.3893 14.9701 13.9366 15.658C13.6475 16.1285 13.1382 16.4155 12.6078 16.5273C12.5942 16.7189 12.648 16.9391 12.5308 17.1082C12.3903 17.3175 12.0058 17.2847 11.9322 17.0345C11.894 16.8586 11.9035 16.6766 11.879 16.4993C11.2824 16.3643 10.767 15.9178 10.5441 15.3499C10.4486 15.1181 10.6825 14.8453 10.9265 14.8951C11.1297 14.9135 11.1986 15.1337 11.3015 15.2762C11.6001 15.7903 12.2949 16.0398 12.841 15.7828C13.4409 15.5326 13.7511 14.7697 13.49 14.1745C13.2739 13.7661 12.7871 13.6556 12.3924 13.4961C11.8803 13.2814 11.3104 13.1389 10.9006 12.7434C10.48 12.3357 10.405 11.6908 10.5216 11.1419C10.6784 10.4377 11.2688 9.87383 11.9656 9.70747C11.9785 9.52408 11.9485 9.33113 12.0112 9.15455Z" fill="#E96315"></path>
    <path d="M7.82955 23.2355C8.54338 22.671 9.54559 22.506 10.406 22.7971C11.3496 23.1012 12.0586 23.9487 12.257 24.912C15.0571 24.9338 17.8578 24.9147 20.6579 24.9216C20.949 24.9297 21.2449 24.8943 21.5326 24.9475C21.8783 25.0531 21.7794 25.6531 21.4065 25.6163C18.3685 25.6333 15.3291 25.6047 12.2918 25.6306C12.2216 26.3935 11.8411 27.1251 11.2289 27.5914C10.5546 28.1198 9.63013 28.2943 8.80518 28.0734C7.99932 27.8627 7.30663 27.2628 6.9896 26.4917C6.50418 25.3797 6.85598 23.9678 7.82955 23.2355ZM9.02471 23.4182C8.71587 23.5007 8.42611 23.6562 8.18544 23.8668C7.51526 24.4307 7.27322 25.4431 7.64752 26.2401C8.00136 27.0855 8.97085 27.6105 9.87284 27.4407C10.6589 27.3057 11.3298 26.6799 11.5255 25.9081C11.6707 25.3579 11.5568 24.7518 11.2378 24.2827C10.7769 23.5696 9.85034 23.1905 9.02471 23.4182Z" fill="#E96315"></path>
  </symbol>
  <symbol fill="none" xmlns="http://www.w3.org/2000/svg" viewBox="0 0 11 6" id="dropdown-arrow">
    <path d="M1.57138 1.71429L5.25709 4.47857C5.61265 4.74524 6.10154 4.74524 6.45709 4.47857L10.1428 1.71429" stroke="#292D32" stroke-width="1.5" stroke-linecap="round" stroke-dasharray="0.2 0.2"></path>
  </symbol>
  <symbol fill="none" xmlns="http://www.w3.org/2000/svg" viewBox="0 0 34 34" id="facebook-icon">
    <rect width="34" height="34" rx="17" fill="#4267B2"></rect>
    <path d="M18.1351 28.3335V17.9942H21.6056L22.1252 13.9648H18.1351V11.3921C18.1351 10.2255 18.4591 9.43043 20.1321 9.43043L22.2659 9.42945V5.82559C21.8967 5.77667 20.6301 5.66699 19.1566 5.66699C16.0803 5.66699 13.9741 7.54472 13.9741 10.9932V13.9649H10.4946V17.9943H13.974V28.3337L18.1351 28.3335Z" fill="white"></path>
  </symbol>
  <symbol fill="none" xmlns="http://www.w3.org/2000/svg" viewBox="0 0 18 16" id="heart">
    <path d="M14.8333 5.31394C14.661 4.75511 14.3523 4.23003 13.8789 3.7607C13.5062 3.39118 13.1194 3.14748 12.7313 3M7.66607 1.45494C6.27135 0.570212 4.0189 -0.2664 2.07373 1.71726C-2.54377 6.42614 5.37483 15.5 8.99995 15.5C12.6251 15.5 20.5437 6.42614 15.9262 1.71726C13.981 -0.266378 11.7286 0.570223 10.3339 1.45494C9.54582 1.95485 8.45414 1.95485 7.66607 1.45494Z" stroke="#2C2C35" stroke-linecap="round"></path>
  </symbol>
  <symbol fill="none" xmlns="http://www.w3.org/2000/svg" viewBox="0 0 18 17" id="heart-blue">
    <path d="M14.488 5.88847C14.322 5.35017 14.0246 4.84439 13.5687 4.3923C13.2096 4.03636 12.837 3.80162 12.4632 3.65955M7.58407 2.17126C6.2406 1.31904 4.07091 0.513163 2.1972 2.42394C-2.25065 6.95981 5.37702 15.7003 8.86894 15.7003C12.3609 15.7003 19.9886 6.95981 15.5407 2.42394C13.667 0.513184 11.4973 1.31905 10.1539 2.17126C9.39475 2.6528 8.34319 2.6528 7.58407 2.17126Z" stroke="#5B819A" stroke-width="0.963259" stroke-linecap="round"></path>
  </symbol>
</svg>


<svg class="icon">
  <use xlink:href="#instagram-icon"></use>
</svg><svg class="icon">
  <use xlink:href="#logo"></use>
</svg><svg class="icon">
  <use xlink:href="#logo-footer"></use>
</svg><svg class="icon">
  <use xlink:href="#meest-logo"></use>
</svg><svg class="icon">
  <use xlink:href="#payment-icon"></use>
</svg><svg class="icon">
  <use xlink:href="#price"></use>
</svg><svg class="icon">
  <use xlink:href="#search"></use>
</svg><svg class="icon">
  <use xlink:href="#search-orange"></use>
</svg><svg class="icon">
  <use xlink:href="#telegram"></use>
</svg><svg class="icon">
  <use xlink:href="#telegram-icon"></use>
</svg><svg class="icon">
  <use xlink:href="#viber"></use>
</svg><svg class="icon">
  <use xlink:href="#warranty-icon"></use>
</svg><svg class="icon">
  <use xlink:href="#webmaestro"></use>
</svg><svg class="icon">
  <use xlink:href="#whatsup"></use>
</svg><svg class="icon">
  <use xlink:href="#youtube-icon"></use>
</svg><svg class="icon">
  <use xlink:href="#arrow-left"></use>
</svg><svg class="icon">
  <use xlink:href="#arrow-right"></use>
</svg><svg class="icon">
  <use xlink:href="#burger-menu"></use>
</svg><svg class="icon">
  <use xlink:href="#call"></use>
</svg><svg class="icon">
  <use xlink:href="#cart"></use>
</svg><svg class="icon">
  <use xlink:href="#cart-button"></use>
</svg><svg class="icon">
  <use xlink:href="#close"></use>
</svg><svg class="icon">
  <use xlink:href="#delivery-icon"></use>
</svg><svg class="icon">
  <use xlink:href="#dropdown-arrow"></use>
</svg><svg class="icon">
  <use xlink:href="#facebook-icon"></use>
</svg><svg class="icon">
  <use xlink:href="#heart"></use>
</svg><svg class="icon">
  <use xlink:href="#heart-blue"></use>
</svg>